<svg width="35" height="10" viewBox="0 0 35 10" fill="none" xmlns="http://www.w3.org/2000/svg"><path fill-rule="evenodd" clip-rule="evenodd" d="M9.431 0v.004c-.004 0-1.367-.004-1.73 1.31A1443.23 1443.23 0 016.403 5.94h-.26s-.96-3.402-1.298-4.629C4.482-.004 3.115 0 3.115 0H0v10h3.115V4.061h.26L5.192 10h2.163l1.817-5.934h.26V10h3.114V0H9.431zm11.378 0s-.913.083-1.341 1.048l-2.207 4.89h-.26V0h-3.114v10h2.942s.956-.087 1.384-1.048l2.163-4.89h.26V10h3.115V0h-2.942zm4.328 4.541V10h3.115V6.812h3.374a3.373 3.373 0 003.18-2.271h-9.67z" fill="#4DB45E"/><path fill-rule="evenodd" clip-rule="evenodd" d="M31.626 0h-6.927a5.005 5.005 0 003.591 3.93c.415.114.852.175 1.302.175h5.339c.048-.227.07-.459.07-.699C35 1.524 33.49 0 31.625 0z" fill="url(#paint0_linear)"/><defs><linearGradient id="paint0_linear" x1="24.7" y1="2.052" x2="35" y2="2.052" gradientUnits="userSpaceOnUse"><stop offset=".3" stop-color="#00B4E6"/><stop offset="1" stop-color="#088CCB"/></linearGradient></defs></svg>