<svg width="32" height="15" viewBox="0 0 32 15" fill="none" xmlns="http://www.w3.org/2000/svg"><g clip-path="url(#clip0)"><path d="M11.732 12.597l1.626-9.143h2.54l-1.575 9.143h-2.59z" fill="#3C58BF"/><path d="M11.732 12.597l2.083-9.143h2.083l-1.575 9.143h-2.59z" fill="#293688"/><path d="M23.517 3.556c-.507-.203-1.32-.407-2.336-.407-2.54 0-4.368 1.27-4.368 3.099 0 1.371 1.27 2.082 2.286 2.54 1.015.457 1.32.761 1.32 1.168 0 .61-.813.914-1.524.914-1.016 0-1.574-.152-2.438-.508l-.355-.152-.356 2.082c.61.254 1.727.508 2.895.508 2.692 0 4.47-1.27 4.47-3.2 0-1.066-.66-1.88-2.184-2.54-.914-.457-1.473-.71-1.473-1.168 0-.406.457-.812 1.473-.812.864 0 1.473.152 1.93.355l.254.102.406-1.981z" fill="#3C58BF"/><path d="M23.517 3.556c-.507-.203-1.32-.407-2.336-.407-2.54 0-3.911 1.27-3.911 3.099 0 1.371.813 2.082 1.829 2.54 1.015.457 1.32.761 1.32 1.168 0 .61-.813.914-1.524.914-1.016 0-1.574-.152-2.438-.508l-.355-.152-.356 2.082c.61.254 1.727.508 2.895.508 2.692 0 4.47-1.27 4.47-3.2 0-1.066-.66-1.88-2.184-2.54-.914-.457-1.473-.71-1.473-1.168 0-.406.457-.812 1.473-.812.864 0 1.473.152 1.93.355l.254.102.406-1.981z" fill="#293688"/><path d="M27.886 3.454c-.61 0-1.067.05-1.32.66l-3.81 8.483h2.743l.508-1.524h3.25l.305 1.524H32l-2.133-9.143h-1.981zM26.718 9.55c.152-.457 1.016-2.692 1.016-2.692s.203-.558.355-.914l.153.863s.508 2.286.61 2.794h-2.134v-.05z" fill="#3C58BF"/><path d="M28.495 3.454c-.609 0-1.066.05-1.32.66l-4.42 8.483H25.5l.508-1.524h3.25l.305 1.524H32l-2.133-9.143h-1.372zM26.718 9.55c.203-.508 1.016-2.692 1.016-2.692s.203-.558.355-.914l.153.863s.508 2.286.61 2.794h-2.134v-.05z" fill="#293688"/><path d="M7.061 9.854l-.253-1.32c-.458-1.524-1.93-3.2-3.556-4.013l2.286 8.127H8.28l4.114-9.143H9.652l-2.59 6.35z" fill="#3C58BF"/><path d="M7.061 9.854l-.253-1.32c-.458-1.524-1.93-3.2-3.556-4.013l2.286 8.127H8.28l4.114-9.143H10.16l-3.1 6.35z" fill="#293688"/><path d="M0 3.454l.457.102c3.25.762 5.486 2.692 6.35 4.977l-.915-4.317c-.152-.61-.61-.762-1.168-.762H0z" fill="#FFBC00"/><path d="M0 3.454c3.25.762 5.943 2.743 6.806 5.029l-.863-3.607a1.24 1.24 0 00-1.22-.965L0 3.454z" fill="#F7981D"/><path d="M0 3.454c3.25.762 5.943 2.743 6.806 5.029l-.61-1.981c-.152-.61-.355-1.22-1.066-1.473L0 3.454z" fill="#ED7C00"/><path d="M9.6 9.55L7.871 7.821l-.812 1.93-.204-1.27C6.4 6.96 4.926 5.282 3.301 4.47l2.285 8.127H8.33L9.6 9.549zm4.723 3.047l-2.184-2.235-.407 2.235h2.59zm5.842-3.15c.203.203.305.356.254.559 0 .61-.813.914-1.524.914-1.016 0-1.574-.152-2.438-.508l-.355-.152-.356 2.082c.61.255 1.727.508 2.895.508 1.626 0 2.946-.457 3.708-1.27l-2.184-2.133zm2.945 3.149h2.387l.508-1.524h3.25l.305 1.524h2.438l-.863-3.708-3.048-2.946.152.813s.508 2.286.61 2.794h-2.133c.203-.508 1.016-2.692 1.016-2.692s.203-.56.355-.915" fill="#051244"/></g><defs><clipPath id="clip0"><path fill="#fff" d="M0 0h32v15H0z"/></clipPath></defs></svg>