<svg width="355" height="155" viewBox="0 0 355 155" fill="none" xmlns="http://www.w3.org/2000/svg">
<path d="M1.50637 48.8911C1.58279 49.716 2.31342 50.3228 3.13832 50.2464L16.5808 49.0014C17.4057 48.925 18.0125 48.1943 17.936 47.3694C17.8597 46.5445 17.129 45.9378 16.3041 46.0142L4.35525 47.1209L3.24854 35.172C3.17214 34.3471 2.44148 33.7403 1.61659 33.8167C0.79169 33.8931 0.184929 34.6238 0.261324 35.4487L1.50637 48.8911ZM354.975 152.836C297.435 97.1456 232.206 43.3874 169.916 17.2501C138.756 4.1752 108.225 -2.03363 79.7055 1.97431C51.143 5.98823 24.7363 20.2312 1.84602 47.7945L4.15396 49.7111C26.6061 22.6754 52.358 8.84697 80.123 4.94511C107.931 1.03727 137.897 7.06819 168.755 20.0164C230.501 45.9254 295.396 99.3469 352.888 154.992L354.975 152.836Z" fill="#00BEB4"/>
</svg>
