<svg width="0" height="0" class="hidden">
  <symbol fill="none" xmlns="http://www.w3.org/2000/svg" viewBox="0 0 40 40" id="location">
    <path d="M20 0C11.85 0 5.21942 6.63048 5.21942 14.7806C5.21942 22.6711 18.6941 38.9667 19.2677 39.6565C19.4486 39.874 19.7169 40 20 40C20.2829 40 20.5514 39.8742 20.7323 39.6565C21.306 38.9666 34.7806 22.6711 34.7806 14.7806C34.7806 6.63048 28.1501 0 20 0ZM20 37.5363C18.8052 36.0443 16.3228 32.8657 13.8663 29.2319C9.45561 22.7076 7.12418 17.7104 7.12418 14.7806C7.12418 7.68076 12.9003 1.90476 20 1.90476C27.0997 1.90476 32.8758 7.68076 32.8758 14.7806C32.8758 17.7102 30.5445 22.7074 26.1337 29.2319C23.6771 32.8657 21.1948 36.0443 20 37.5363Z" fill="#00BEB4"></path>
    <path d="M24.8453 27.169C24.4095 26.8745 23.8174 26.9893 23.523 27.4251C22.2378 29.3276 20.7981 31.3215 19.2438 33.3515C18.924 33.7691 19.0033 34.3669 19.4209 34.6866C19.5936 34.8189 19.7972 34.8829 19.9992 34.8829C20.2854 34.8829 20.5686 34.7543 20.756 34.5095C22.3332 32.4498 23.7952 30.425 25.1013 28.4914C25.3958 28.0556 25.2812 27.4635 24.8453 27.169Z" fill="#00BEB4"></path>
    <path d="M20 7.30161C15.6938 7.30161 12.1905 10.805 12.1905 15.1111C12.1905 19.4173 15.6938 22.9207 20 22.9207C24.3061 22.9207 27.8095 19.4173 27.8095 15.1111C27.8095 10.805 24.3061 7.30161 20 7.30161ZM20 21.0159C16.7441 21.0159 14.0952 18.367 14.0952 15.1111C14.0952 11.8553 16.7441 9.20637 20 9.20637C23.256 9.20637 25.9047 11.8553 25.9047 15.1111C25.9047 18.367 23.256 21.0159 20 21.0159Z" fill="#00BEB4"></path>
  </symbol>
  <symbol fill="none" xmlns="http://www.w3.org/2000/svg" viewBox="0 0 71 71" id="present">
    <g clip-path="url(#clip0_23_2271)">
      <path d="M68.8265 14.4943H59.2934C60.8124 12.2042 61.2521 9.42429 60.4956 6.78164C60.4553 6.64036 60.2686 6.08338 60.2145 5.94268C59.1572 3.20367 56.9197 1.17119 54.0759 0.366426C51.1706 -0.456014 48.1264 0.120824 45.725 1.94915L35.5 9.73408L25.275 1.94915C22.8737 0.120969 19.8302 -0.456159 16.9239 0.366426C14.0802 1.17133 11.8428 3.20367 10.7859 5.94224C10.7335 6.07801 10.5449 6.63993 10.5048 6.78048C9.74801 9.42414 10.1876 12.204 11.7066 14.4943H2.17347C0.973135 14.4943 0 15.4673 0 16.6676V34.0539C0 35.2542 0.973135 36.2272 2.17347 36.2272H4.34694V68.8267C4.34694 70.027 5.32007 71 6.52041 71H64.4796C65.6799 71 66.6531 70.027 66.6531 68.8267V36.2272H68.8265C70.0269 36.2272 71 35.2542 71 34.0539V16.6674C71 15.4673 70.0269 14.4943 68.8265 14.4943ZM37.6735 13.5426L48.3584 5.40743C49.6616 4.41516 51.314 4.1019 52.8921 4.54876C54.408 4.9778 55.5988 6.05628 56.1583 7.50584C56.1878 7.58263 56.2936 7.8975 56.3162 7.97676C56.7471 9.48167 56.4454 11.0757 55.4887 12.3498C54.5 13.6665 52.9982 14.4254 51.3682 14.4317C51.1922 14.4324 49.9897 14.4943 49.9897 14.4943H37.6733V13.5426H37.6735ZM37.6735 23.5149L43.5791 31.8806H37.6735V23.5149ZM14.6837 7.9769C14.7063 7.89793 14.8113 7.58452 14.841 7.50772C15.4012 6.05628 16.592 4.9778 18.1078 4.54876C19.6857 4.10204 21.3381 4.41516 22.6415 5.40743L33.3265 13.5426V14.4943H21.0102C21.0102 14.4943 19.8078 14.4324 19.6316 14.4317C18.0018 14.4253 16.5001 13.6665 15.5113 12.3498C14.5546 11.0755 14.2529 9.48167 14.6837 7.9769ZM4.34694 31.8806V18.8408H33.3265V31.8806H4.34694ZM62.3061 66.6533H8.69388V36.2272H33.3265V51.4403C33.3265 52.6407 34.2997 53.6137 35.5 53.6137C36.7003 53.6137 37.6735 52.6407 37.6735 51.4403V36.2272H46.6476L51.1122 42.5516C51.8046 43.5322 53.161 43.7658 54.1413 43.0738C55.1219 42.3816 55.3558 41.0255 54.6635 40.045L51.9682 36.2272H62.3061V66.6533ZM66.6531 31.8806H48.9L39.6948 18.8408H66.6531V31.8806Z" fill="#292929"></path>
    </g>
    <defs>
      <clipPath id="clip0_23_2271">
        <rect width="71" height="71" fill="white"></rect>
      </clipPath>
    </defs>
  </symbol>
  <symbol fill="none" xmlns="http://www.w3.org/2000/svg" viewBox="0 0 21 21" id="check">
    <g clip-path="url(#clip0_17_1924)">
      <path d="M20.3849 6.44741L9.30651 17.525C8.48614 18.3455 7.15537 18.3455 6.33423 17.525L0.615487 11.8059C-0.205193 10.9853 -0.205193 9.65442 0.615487 8.83374C1.43632 8.01291 2.76698 8.01291 3.58746 8.83343L7.82081 13.0668L17.4125 3.47513C18.2333 2.6543 19.5641 2.65492 20.3846 3.47513C21.2051 4.29581 21.2051 5.62627 20.3849 6.44741Z" fill="white"></path>
    </g>
    <defs>
      <clipPath id="clip0_17_1924">
        <rect width="21" height="21" fill="white"></rect>
      </clipPath>
    </defs>
  </symbol>
</svg>